<svg width="752" height="191" viewBox="0 0 752 191" fill="none" xmlns="http://www.w3.org/2000/svg">
<path d="M39.4303 72L16.7743 42.24V72H0.35825V4.608H16.7743V34.176L39.2383 4.608H58.5343L32.4223 37.632L59.4943 72H39.4303ZM117.792 44.352C117.792 45.888 117.696 47.488 117.504 49.152H80.3518C80.6078 52.48 81.6638 55.04 83.5198 56.832C85.4398 58.56 87.7758 59.424 90.5278 59.424C94.6238 59.424 97.4718 57.696 99.0718 54.24H116.544C115.648 57.76 114.016 60.928 111.648 63.744C109.344 66.56 106.432 68.768 102.912 70.368C99.3918 71.968 95.4558 72.768 91.1038 72.768C85.8558 72.768 81.1838 71.648 77.0878 69.408C72.9918 67.168 69.7918 63.968 67.4878 59.808C65.1838 55.648 64.0318 50.784 64.0318 45.216C64.0318 39.648 65.1518 34.784 67.3918 30.624C69.6958 26.464 72.8958 23.264 76.9918 21.024C81.0878 18.784 85.7918 17.664 91.1038 17.664C96.2878 17.664 100.896 18.752 104.928 20.928C108.96 23.104 112.096 26.208 114.336 30.24C116.64 34.272 117.792 38.976 117.792 44.352ZM100.992 40.032C100.992 37.216 100.032 34.976 98.1118 33.312C96.1918 31.648 93.7918 30.816 90.9118 30.816C88.1598 30.816 85.8238 31.616 83.9038 33.216C82.0478 34.816 80.8958 37.088 80.4478 40.032H100.992ZM176.948 44.352C176.948 45.888 176.852 47.488 176.66 49.152H139.508C139.764 52.48 140.82 55.04 142.676 56.832C144.596 58.56 146.932 59.424 149.684 59.424C153.78 59.424 156.628 57.696 158.228 54.24H175.7C174.804 57.76 173.172 60.928 170.804 63.744C168.5 66.56 165.588 68.768 162.068 70.368C158.548 71.968 154.612 72.768 150.26 72.768C145.012 72.768 140.34 71.648 136.244 69.408C132.148 67.168 128.948 63.968 126.644 59.808C124.34 55.648 123.188 50.784 123.188 45.216C123.188 39.648 124.308 34.784 126.548 30.624C128.852 26.464 132.052 23.264 136.148 21.024C140.244 18.784 144.948 17.664 150.26 17.664C155.444 17.664 160.052 18.752 164.084 20.928C168.116 23.104 171.252 26.208 173.492 30.24C175.796 34.272 176.948 38.976 176.948 44.352ZM160.148 40.032C160.148 37.216 159.188 34.976 157.268 33.312C155.348 31.648 152.948 30.816 150.068 30.816C147.316 30.816 144.98 31.616 143.06 33.216C141.204 34.816 140.052 37.088 139.604 40.032H160.148ZM202.024 26.016C203.624 23.52 205.832 21.504 208.648 19.968C211.464 18.432 214.76 17.664 218.536 17.664C222.952 17.664 226.952 18.784 230.536 21.024C234.12 23.264 236.936 26.464 238.984 30.624C241.096 34.784 242.152 39.616 242.152 45.12C242.152 50.624 241.096 55.488 238.984 59.712C236.936 63.872 234.12 67.104 230.536 69.408C226.952 71.648 222.952 72.768 218.536 72.768C214.824 72.768 211.528 72 208.648 70.464C205.832 68.928 203.624 66.944 202.024 64.512V97.536H185.608V18.432H202.024V26.016ZM225.448 45.12C225.448 41.024 224.296 37.824 221.992 35.52C219.752 33.152 216.968 31.968 213.64 31.968C210.376 31.968 207.592 33.152 205.288 35.52C203.048 37.888 201.928 41.12 201.928 45.216C201.928 49.312 203.048 52.544 205.288 54.912C207.592 57.28 210.376 58.464 213.64 58.464C216.904 58.464 219.688 57.28 221.992 54.912C224.296 52.48 225.448 49.216 225.448 45.12ZM300.964 58.08V72H292.612C286.66 72 282.02 70.56 278.692 67.68C275.364 64.736 273.7 59.968 273.7 53.376V32.064H267.172V18.432H273.7V5.376H290.116V18.432H300.868V32.064H290.116V53.568C290.116 55.168 290.5 56.32 291.268 57.024C292.036 57.728 293.316 58.08 295.108 58.08H300.964ZM343.036 17.856C349.18 17.856 354.108 19.904 357.82 24C361.532 28.032 363.388 33.6 363.388 40.704V72H347.068V42.912C347.068 39.328 346.14 36.544 344.284 34.56C342.428 32.576 339.932 31.584 336.796 31.584C333.66 31.584 331.164 32.576 329.308 34.56C327.452 36.544 326.524 39.328 326.524 42.912V72H310.108V0.959999H326.524V25.632C328.188 23.264 330.46 21.376 333.34 19.968C336.22 18.56 339.452 17.856 343.036 17.856ZM425.292 44.352C425.292 45.888 425.196 47.488 425.004 49.152H387.852C388.108 52.48 389.164 55.04 391.02 56.832C392.94 58.56 395.276 59.424 398.028 59.424C402.124 59.424 404.972 57.696 406.572 54.24H424.044C423.148 57.76 421.516 60.928 419.148 63.744C416.844 66.56 413.932 68.768 410.412 70.368C406.892 71.968 402.956 72.768 398.604 72.768C393.356 72.768 388.684 71.648 384.588 69.408C380.492 67.168 377.292 63.968 374.988 59.808C372.684 55.648 371.532 50.784 371.532 45.216C371.532 39.648 372.652 34.784 374.892 30.624C377.196 26.464 380.396 23.264 384.492 21.024C388.588 18.784 393.292 17.664 398.604 17.664C403.788 17.664 408.396 18.752 412.428 20.928C416.46 23.104 419.596 26.208 421.836 30.24C424.14 34.272 425.292 38.976 425.292 44.352ZM408.492 40.032C408.492 37.216 407.532 34.976 405.612 33.312C403.692 31.648 401.292 30.816 398.412 30.816C395.66 30.816 393.324 31.616 391.404 33.216C389.548 34.816 388.396 37.088 387.948 40.032H408.492ZM226.922 163.216C226.922 157.648 228.042 152.784 230.282 148.624C232.586 144.464 235.754 141.264 239.786 139.024C243.882 136.784 248.554 135.664 253.802 135.664C260.522 135.664 266.122 137.424 270.602 140.944C275.146 144.464 278.122 149.424 279.53 155.824H262.058C260.586 151.728 257.738 149.68 253.514 149.68C250.506 149.68 248.106 150.864 246.314 153.232C244.522 155.536 243.626 158.864 243.626 163.216C243.626 167.568 244.522 170.928 246.314 173.296C248.106 175.6 250.506 176.752 253.514 176.752C257.738 176.752 260.586 174.704 262.058 170.608H279.53C278.122 176.88 275.146 181.808 270.602 185.392C266.058 188.976 260.458 190.768 253.802 190.768C248.554 190.768 243.882 189.648 239.786 187.408C235.754 185.168 232.586 181.968 230.282 177.808C228.042 173.648 226.922 168.784 226.922 163.216ZM304.727 118.96V190H288.311V118.96H304.727ZM367.12 162.352C367.12 163.888 367.024 165.488 366.832 167.152H329.68C329.936 170.48 330.992 173.04 332.848 174.832C334.768 176.56 337.104 177.424 339.856 177.424C343.952 177.424 346.8 175.696 348.4 172.24H365.872C364.976 175.76 363.344 178.928 360.976 181.744C358.672 184.56 355.76 186.768 352.24 188.368C348.72 189.968 344.784 190.768 340.432 190.768C335.184 190.768 330.512 189.648 326.416 187.408C322.32 185.168 319.12 181.968 316.816 177.808C314.512 173.648 313.36 168.784 313.36 163.216C313.36 157.648 314.48 152.784 316.72 148.624C319.024 144.464 322.224 141.264 326.32 139.024C330.416 136.784 335.12 135.664 340.432 135.664C345.616 135.664 350.224 136.752 354.256 138.928C358.288 141.104 361.424 144.208 363.664 148.24C365.968 152.272 367.12 156.976 367.12 162.352ZM350.32 158.032C350.32 155.216 349.36 152.976 347.44 151.312C345.52 149.648 343.12 148.816 340.24 148.816C337.488 148.816 335.152 149.616 333.232 151.216C331.376 152.816 330.224 155.088 329.776 158.032H350.32ZM372.516 163.12C372.516 157.616 373.54 152.784 375.588 148.624C377.7 144.464 380.548 141.264 384.132 139.024C387.716 136.784 391.716 135.664 396.132 135.664C399.908 135.664 403.204 136.432 406.02 137.968C408.9 139.504 411.108 141.52 412.644 144.016V136.432H429.06V190H412.644V182.416C411.044 184.912 408.804 186.928 405.924 188.464C403.108 190 399.812 190.768 396.036 190.768C391.684 190.768 387.716 189.648 384.132 187.408C380.548 185.104 377.7 181.872 375.588 177.712C373.54 173.488 372.516 168.624 372.516 163.12ZM412.644 163.216C412.644 159.12 411.492 155.888 409.188 153.52C406.948 151.152 404.196 149.968 400.932 149.968C397.668 149.968 394.884 151.152 392.58 153.52C390.34 155.824 389.22 159.024 389.22 163.12C389.22 167.216 390.34 170.48 392.58 172.912C394.884 175.28 397.668 176.464 400.932 176.464C404.196 176.464 406.948 175.28 409.188 172.912C411.492 170.544 412.644 167.312 412.644 163.216ZM473.576 135.856C479.848 135.856 484.84 137.904 488.552 142C492.328 146.032 494.216 151.6 494.216 158.704V190H477.896V160.912C477.896 157.328 476.968 154.544 475.112 152.56C473.256 150.576 470.76 149.584 467.624 149.584C464.488 149.584 461.992 150.576 460.136 152.56C458.28 154.544 457.352 157.328 457.352 160.912V190H440.936V136.432H457.352V143.536C459.016 141.168 461.256 139.312 464.072 137.968C466.888 136.56 470.056 135.856 473.576 135.856ZM513.304 190.768C510.424 190.768 508.056 189.936 506.2 188.272C504.408 186.544 503.512 184.432 503.512 181.936C503.512 179.376 504.408 177.232 506.2 175.504C508.056 173.776 510.424 172.912 513.304 172.912C516.12 172.912 518.424 173.776 520.216 175.504C522.072 177.232 523 179.376 523 181.936C523 184.432 522.072 186.544 520.216 188.272C518.424 189.936 516.12 190.768 513.304 190.768Z" fill="#433B3B"/>
<path d="M478.68 72.768C473.432 72.768 468.696 71.648 464.472 69.408C460.312 67.168 457.016 63.968 454.584 59.808C452.216 55.648 451.032 50.784 451.032 45.216C451.032 39.712 452.248 34.88 454.68 30.72C457.112 26.496 460.44 23.264 464.664 21.024C468.888 18.784 473.624 17.664 478.872 17.664C484.12 17.664 488.856 18.784 493.08 21.024C497.304 23.264 500.632 26.496 503.064 30.72C505.496 34.88 506.712 39.712 506.712 45.216C506.712 50.72 505.464 55.584 502.968 59.808C500.536 63.968 497.176 67.168 492.888 69.408C488.664 71.648 483.928 72.768 478.68 72.768ZM478.68 58.56C481.816 58.56 484.472 57.408 486.648 55.104C488.888 52.8 490.008 49.504 490.008 45.216C490.008 40.928 488.92 37.632 486.744 35.328C484.632 33.024 482.008 31.872 478.872 31.872C475.672 31.872 473.016 33.024 470.904 35.328C468.792 37.568 467.736 40.864 467.736 45.216C467.736 49.504 468.76 52.8 470.808 55.104C472.92 57.408 475.544 58.56 478.68 58.56ZM512.157 45.216C512.157 39.648 513.277 34.784 515.517 30.624C517.821 26.464 520.989 23.264 525.021 21.024C529.117 18.784 533.789 17.664 539.037 17.664C545.757 17.664 551.357 19.424 555.837 22.944C560.381 26.464 563.357 31.424 564.765 37.824H547.293C545.821 33.728 542.973 31.68 538.749 31.68C535.741 31.68 533.341 32.864 531.549 35.232C529.757 37.536 528.861 40.864 528.861 45.216C528.861 49.568 529.757 52.928 531.549 55.296C533.341 57.6 535.741 58.752 538.749 58.752C542.973 58.752 545.821 56.704 547.293 52.608H564.765C563.357 58.88 560.381 63.808 555.837 67.392C551.293 70.976 545.693 72.768 539.037 72.768C533.789 72.768 529.117 71.648 525.021 69.408C520.989 67.168 517.821 63.968 515.517 59.808C513.277 55.648 512.157 50.784 512.157 45.216ZM624.042 44.352C624.042 45.888 623.946 47.488 623.754 49.152H586.602C586.858 52.48 587.914 55.04 589.77 56.832C591.69 58.56 594.026 59.424 596.778 59.424C600.874 59.424 603.722 57.696 605.322 54.24H622.794C621.898 57.76 620.266 60.928 617.898 63.744C615.594 66.56 612.682 68.768 609.162 70.368C605.642 71.968 601.706 72.768 597.354 72.768C592.106 72.768 587.434 71.648 583.338 69.408C579.242 67.168 576.042 63.968 573.738 59.808C571.434 55.648 570.282 50.784 570.282 45.216C570.282 39.648 571.402 34.784 573.642 30.624C575.946 26.464 579.146 23.264 583.242 21.024C587.338 18.784 592.042 17.664 597.354 17.664C602.538 17.664 607.146 18.752 611.178 20.928C615.21 23.104 618.346 26.208 620.586 30.24C622.89 34.272 624.042 38.976 624.042 44.352ZM607.242 40.032C607.242 37.216 606.282 34.976 604.362 33.312C602.442 31.648 600.042 30.816 597.162 30.816C594.41 30.816 592.074 31.616 590.154 33.216C588.298 34.816 587.146 37.088 586.698 40.032H607.242ZM629.438 45.12C629.438 39.616 630.462 34.784 632.51 30.624C634.622 26.464 637.47 23.264 641.054 21.024C644.638 18.784 648.638 17.664 653.054 17.664C656.83 17.664 660.126 18.432 662.942 19.968C665.822 21.504 668.03 23.52 669.566 26.016V18.432H685.982V72H669.566V64.416C667.966 66.912 665.726 68.928 662.846 70.464C660.03 72 656.734 72.768 652.958 72.768C648.606 72.768 644.638 71.648 641.054 69.408C637.47 67.104 634.622 63.872 632.51 59.712C630.462 55.488 629.438 50.624 629.438 45.12ZM669.566 45.216C669.566 41.12 668.414 37.888 666.11 35.52C663.87 33.152 661.118 31.968 657.854 31.968C654.59 31.968 651.806 33.152 649.502 35.52C647.262 37.824 646.142 41.024 646.142 45.12C646.142 49.216 647.262 52.48 649.502 54.912C651.806 57.28 654.59 58.464 657.854 58.464C661.118 58.464 663.87 57.28 666.11 54.912C668.414 52.544 669.566 49.312 669.566 45.216ZM730.498 17.856C736.77 17.856 741.762 19.904 745.474 24C749.25 28.032 751.138 33.6 751.138 40.704V72H734.818V42.912C734.818 39.328 733.89 36.544 732.034 34.56C730.178 32.576 727.682 31.584 724.546 31.584C721.41 31.584 718.914 32.576 717.058 34.56C715.202 36.544 714.274 39.328 714.274 42.912V72H697.858V18.432H714.274V25.536C715.938 23.168 718.178 21.312 720.994 19.968C723.81 18.56 726.978 17.856 730.498 17.856Z" fill="#06BEE1"/>
</svg>
