<svg width="338" height="84" viewBox="0 0 338 84" fill="none" xmlns="http://www.w3.org/2000/svg">
<path d="M18.3901 47.9074C23.3798 47.9074 28.0738 46.1345 31.7424 42.8903C35.4104 46.1345 40.1044 47.9074 45.0941 47.9074C50.4642 47.9074 55.5653 45.8035 59.3022 42.0896C63.0396 45.8035 68.1407 47.9074 73.5108 47.9074C79.3656 47.9074 84.9009 45.4068 88.6965 41.0456C89.1538 40.5199 89.0868 39.7338 88.5463 39.2884C88.0072 38.8467 87.1984 38.9088 86.7411 39.4344C83.4328 43.2359 78.6106 45.4153 73.5108 45.4153C68.411 45.4153 63.5888 43.2359 60.2798 39.4344C59.8076 38.8911 58.8766 38.8884 58.3767 39.3974C56.6397 36.0975 54.9254 32.2338 54.1523 27.8342C53.8751 26.2619 53.4785 22.5018 55.7648 21.5563C56.8138 21.1231 58.008 21.0964 59.2721 21.0671C60.3949 21.0416 61.5553 21.0161 62.7344 20.7119C65.9508 19.882 68.984 18.0007 71.2745 15.4161C73.9461 12.4031 75.9353 8.25724 76.8754 3.74395C77.0575 2.87265 77.1814 2.09512 77.2552 1.36736C77.3058 0.867294 77.0418 0.386629 76.5865 0.149367C76.1324 -0.0891429 75.5725 -0.0393057 75.1715 0.279476C75.1184 0.320894 69.7833 4.48012 63.7865 4.48012C62.5923 4.48012 61.1005 4.23557 59.5211 3.97636C55.1812 3.26448 49.89 2.39685 46.5003 5.90754C43.1118 2.39685 37.82 3.26328 33.4788 3.97636C31.8994 4.23557 30.4082 4.48012 29.2141 4.48012C23.2172 4.48012 17.8822 0.320894 17.829 0.279476C17.4287 -0.0380604 16.8688 -0.0891429 16.4141 0.149367C15.9587 0.386629 15.6947 0.867294 15.7454 1.36736C15.8192 2.09872 15.9431 2.87632 16.1245 3.74395C17.0652 8.25724 19.0544 12.4031 21.7254 15.4161C24.0172 18.0007 27.0504 19.882 30.2662 20.7119C31.4446 21.0161 32.6056 21.0416 33.7284 21.0671C34.9926 21.0964 36.1868 21.1231 37.2357 21.5563C39.5207 22.5018 39.1248 26.2619 38.8483 27.8342C37.9518 32.9329 35.8529 37.2346 33.6529 41.1886C33.3157 40.8983 32.9792 40.6066 32.6619 40.2887C32.4205 40.0465 32.0889 39.9103 31.7424 39.9103C31.3959 39.9103 31.0643 40.0465 30.8235 40.2887C27.5239 43.5949 23.1084 45.4153 18.3901 45.4153C13.7894 45.4153 9.45391 43.6776 6.18311 40.5211C5.6808 40.0356 4.86886 40.038 4.3716 40.5284C3.87304 41.0164 3.87676 41.8061 4.3791 42.2904C8.13284 45.913 13.1089 47.9074 18.3901 47.9074ZM41.3741 28.2552C42.1867 23.6287 41.0733 20.4356 38.2378 19.2638C36.7372 18.6432 35.2379 18.6091 33.7879 18.5762C32.7702 18.5531 31.8081 18.5312 30.923 18.3024C28.2014 17.6003 25.6236 15.9965 23.6657 13.7879C21.4051 11.2386 19.6837 7.74861 18.7804 3.90338C21.1717 5.2735 24.99 6.97228 29.2141 6.97228C30.6227 6.97228 32.2172 6.71068 33.9048 6.43442C38.4098 5.69335 43.0699 4.93036 45.4112 8.61135C45.8779 9.34397 47.122 9.34397 47.5899 8.61135C49.9319 4.93156 54.592 5.6945 59.0951 6.43442C60.7834 6.71068 62.3778 6.97228 63.7865 6.97228C68.0106 6.97228 71.8281 5.2735 74.2195 3.90461C73.3168 7.74861 71.5955 11.2386 69.3342 13.7879C67.377 15.9965 64.7998 17.6003 62.0776 18.3024C61.1919 18.5312 60.2304 18.5531 59.2121 18.5762C57.7627 18.6091 56.2634 18.6432 54.7628 19.2638C51.9266 20.4356 50.8132 23.6287 51.6264 28.2552C52.5132 33.2975 54.5196 37.6125 56.4711 41.2336C53.3314 43.9034 49.315 45.4153 45.0941 45.4153C41.7093 45.4153 38.4884 44.4641 35.7159 42.7139C38.0873 38.4826 40.387 33.8664 41.3741 28.2552Z" fill="#1768AC"/>
<path d="M86.7411 51.334C83.4328 55.1354 78.6106 57.3149 73.5108 57.3149C68.411 57.3149 63.5888 55.1354 60.2798 51.334C59.7932 50.7742 58.8111 50.7767 58.3245 51.334C55.0161 55.1354 50.194 57.3149 45.0941 57.3149C40.3759 57.3149 35.961 55.4945 32.6619 52.1882C32.4205 51.9461 32.0889 51.8098 31.7424 51.8098C31.3959 51.8098 31.0643 51.9461 30.8235 52.1882C27.5239 55.4945 23.1084 57.3149 18.3901 57.3149C13.7894 57.3149 9.45391 55.5772 6.18311 52.4207C5.6808 51.9352 4.86886 51.9375 4.3716 52.428C3.87304 52.9159 3.87676 53.7057 4.3791 54.19C8.13284 57.8125 13.1089 59.807 18.3901 59.807C23.3798 59.807 28.0738 58.0341 31.7424 54.7899C35.4104 58.0341 40.1044 59.807 45.0941 59.807C50.4642 59.807 55.5653 57.7031 59.3022 53.9892C63.0396 57.7031 68.1407 59.807 73.5108 59.807C79.3656 59.807 84.9009 57.3064 88.6965 52.9451C89.1538 52.4195 89.0868 51.6334 88.5463 51.188C88.0072 50.7451 87.1984 50.8084 86.7411 51.334Z" fill="#1768AC"/>
<path d="M86.7411 63.234C83.4328 67.0354 78.6106 69.2148 73.5108 69.2148C68.411 69.2148 63.5888 67.0354 60.2798 63.234C59.7932 62.6742 58.8111 62.6766 58.3245 63.234C55.0161 67.0354 50.194 69.2148 45.0941 69.2148C40.3759 69.2148 35.961 67.3943 32.6619 64.0882C32.4205 63.846 32.0889 63.7097 31.7424 63.7097C31.3959 63.7097 31.0643 63.846 30.8235 64.0882C27.5239 67.3943 23.1084 69.2148 18.3901 69.2148C13.7894 69.2148 9.45391 67.4771 6.18311 64.3206C5.6808 63.835 4.86886 63.8375 4.3716 64.3279C3.87304 64.8159 3.87676 65.6056 4.3791 66.0899C8.13284 69.7125 13.1089 71.7069 18.3901 71.7069C23.3798 71.7069 28.0738 69.934 31.7424 66.6898C35.4104 69.934 40.1044 71.7069 45.0941 71.7069C50.4642 71.7069 55.5653 69.603 59.3022 65.8891C63.0396 69.603 68.1407 71.7069 73.5108 71.7069C79.3656 71.7069 84.9009 69.2063 88.6965 64.845C89.1538 64.3194 89.0868 63.5333 88.5463 63.0879C88.0072 62.645 87.1984 62.7082 86.7411 63.234Z" fill="#1768AC"/>
<path d="M86.7411 75.1336C83.4328 78.9351 78.6106 81.1144 73.5108 81.1144C68.411 81.1144 63.5888 78.9351 60.2798 75.1336C59.7932 74.5738 58.8111 74.5763 58.3245 75.1336C55.0161 78.9351 50.194 81.1144 45.0941 81.1144C40.3759 81.1144 35.961 79.294 32.6619 75.9878C32.4205 75.7457 32.0889 75.6094 31.7424 75.6094C31.3959 75.6094 31.0643 75.7457 30.8235 75.9878C27.5239 79.294 23.1084 81.1144 18.3901 81.1144C13.7894 81.1144 9.45391 79.3768 6.18311 76.2203C5.6808 75.7347 4.86886 75.7371 4.3716 76.2275C3.87304 76.7155 3.87676 77.5052 4.3791 77.9896C8.13284 81.6121 13.1089 83.6066 18.3901 83.6066C23.3798 83.6066 28.0738 81.8336 31.7424 78.5894C35.4104 81.8336 40.1044 83.6066 45.0941 83.6066C50.4642 83.6066 55.5653 81.5026 59.3022 77.7888C63.0396 81.5026 68.1407 83.6066 73.5108 83.6066C79.3656 83.6066 84.9009 81.1059 88.6965 76.7447C89.1538 76.2191 89.0868 75.4329 88.5463 74.9876C88.0072 74.5446 87.1984 74.6079 86.7411 75.1336Z" fill="#1768AC"/>
<path d="M118.76 57.8864C116.12 57.8864 113.693 57.2731 111.48 56.0464C109.293 54.8198 107.547 53.1131 106.24 50.9264C104.96 48.7131 104.32 46.2331 104.32 43.4864C104.32 40.7398 104.96 38.2731 106.24 36.0864C107.547 33.8998 109.293 32.1931 111.48 30.9664C113.693 29.7398 116.12 29.1264 118.76 29.1264C121.4 29.1264 123.813 29.7398 126 30.9664C128.213 32.1931 129.947 33.8998 131.2 36.0864C132.48 38.2731 133.12 40.7398 133.12 43.4864C133.12 46.2331 132.48 48.7131 131.2 50.9264C129.92 53.1131 128.187 54.8198 126 56.0464C123.813 57.2731 121.4 57.8864 118.76 57.8864ZM118.76 51.6464C121 51.6464 122.787 50.8998 124.12 49.4064C125.48 47.9131 126.16 45.9398 126.16 43.4864C126.16 41.0064 125.48 39.0331 124.12 37.5664C122.787 36.0731 121 35.3264 118.76 35.3264C116.493 35.3264 114.68 36.0598 113.32 37.5264C111.987 38.9931 111.32 40.9798 111.32 43.4864C111.32 45.9664 111.987 47.9531 113.32 49.4464C114.68 50.9131 116.493 51.6464 118.76 51.6464ZM135.765 43.5264C135.765 40.7531 136.365 38.2864 137.565 36.1264C138.765 33.9398 140.432 32.2464 142.565 31.0464C144.725 29.8198 147.165 29.2064 149.885 29.2064C153.219 29.2064 156.072 30.0864 158.445 31.8464C160.819 33.6064 162.405 36.0064 163.205 39.0464H155.685C155.125 37.8731 154.325 36.9798 153.285 36.3664C152.272 35.7531 151.112 35.4464 149.805 35.4464C147.699 35.4464 145.992 36.1798 144.685 37.6464C143.379 39.1131 142.725 41.0731 142.725 43.5264C142.725 45.9798 143.379 47.9398 144.685 49.4064C145.992 50.8731 147.699 51.6064 149.805 51.6064C151.112 51.6064 152.272 51.2998 153.285 50.6864C154.325 50.0731 155.125 49.1798 155.685 48.0064H163.205C162.405 51.0464 160.819 53.4464 158.445 55.2064C156.072 56.9398 153.219 57.8064 149.885 57.8064C147.165 57.8064 144.725 57.2064 142.565 56.0064C140.432 54.7798 138.765 53.0864 137.565 50.9264C136.365 48.7664 135.765 46.2998 135.765 43.5264ZM174.234 35.0064V40.6864H183.394V45.9664H174.234V52.1264H184.594V57.6064H167.394V29.5264H184.594V35.0064H174.234ZM206.515 52.6464H196.035L194.355 57.6064H187.195L197.355 29.5264H205.275L215.435 57.6064H208.195L206.515 52.6464ZM204.755 47.3664L201.275 37.0864L197.835 47.3664H204.755ZM243.647 57.6064H236.807L225.367 40.2864V57.6064H218.527V29.5264H225.367L236.807 46.9264V29.5264H243.647V57.6064Z" fill="black"/>
<path d="M270.362 57.8864C267.722 57.8864 265.295 57.2731 263.082 56.0464C260.895 54.8198 259.148 53.1131 257.842 50.9264C256.562 48.7131 255.922 46.2331 255.922 43.4864C255.922 40.7398 256.562 38.2731 257.842 36.0864C259.148 33.8998 260.895 32.1931 263.082 30.9664C265.295 29.7398 267.722 29.1264 270.362 29.1264C273.002 29.1264 275.415 29.7398 277.602 30.9664C279.815 32.1931 281.548 33.8998 282.802 36.0864C284.082 38.2731 284.722 40.7398 284.722 43.4864C284.722 46.2331 284.082 48.7131 282.802 50.9264C281.522 53.1131 279.788 54.8198 277.602 56.0464C275.415 57.2731 273.002 57.8864 270.362 57.8864ZM270.362 51.6464C272.602 51.6464 274.388 50.8998 275.722 49.4064C277.082 47.9131 277.762 45.9398 277.762 43.4864C277.762 41.0064 277.082 39.0331 275.722 37.5664C274.388 36.0731 272.602 35.3264 270.362 35.3264C268.095 35.3264 266.282 36.0598 264.922 37.5264C263.588 38.9931 262.922 40.9798 262.922 43.4864C262.922 45.9664 263.588 47.9531 264.922 49.4464C266.282 50.9131 268.095 51.6464 270.362 51.6464ZM313.647 57.6064H306.807L295.367 40.2864V57.6064H288.527V29.5264H295.367L306.807 46.9264V29.5264H313.647V57.6064ZM325.445 35.0064V40.6864H334.605V45.9664H325.445V52.1264H335.805V57.6064H318.605V29.5264H335.805V35.0064H325.445Z" fill="#1768AC"/>
</svg>
