<svg width="1440" height="74" viewBox="0 0 1440 74" fill="none" xmlns="http://www.w3.org/2000/svg">
<path d="M0 32.8L24 36.9C48 41 96 49.2 144 50.5581C192 52.0187 240 46.3812 288 49.2C336 52.0187 384 62.7813 432 68.3419C480 73.8 528 73.8 576 72.4419C624 70.9813 672 68.4188 720 68.3419C768 68.4188 816 70.9812 864 65.6C912 60.2187 960 46.3812 1008 43.7419C1056 41 1104 49.2 1152 45.1C1200 41 1248 24.6 1296 23.2419C1344 21.7812 1392 35.6188 1416 42.3581L1440 49.2V0H1416C1392 0 1344 0 1296 0C1248 0 1200 0 1152 0C1104 0 1056 0 1008 0C960 0 912 0 864 0C816 0 768 0 720 0C672 0 624 0 576 0C528 0 480 0 432 0C384 0 336 0 288 0C240 0 192 0 144 0C96 0 48 0 24 0H0V32.8Z" fill="#D1FFFC"/>
</svg>
