<svg width="1440" height="74" viewBox="0 0 1440 74" fill="none" xmlns="http://www.w3.org/2000/svg">
<path d="M0 36.6L24 42.7076C48 48.7237 96 61.0763 144 61.0076C192 61.0763 240 48.7237 288 41.4724C336 34.0837 384 31.7962 432 30.4924C480 29.28 528 29.28 576 35.3876C624 41.4037 672 53.7562 720 58.56C768 63.3637 816 61.0762 864 59.7724C912 58.56 960 58.56 1008 54.9C1056 51.24 1104 43.92 1152 39.0476C1200 34.0837 1248 31.7962 1296 26.8324C1344 21.96 1392 14.64 1416 10.98L1440 7.32V0H1416C1392 0 1344 0 1296 0C1248 0 1200 0 1152 0C1104 0 1056 0 1008 0C960 0 912 0 864 0C816 0 768 0 720 0C672 0 624 0 576 0C528 0 480 0 432 0C384 0 336 0 288 0C240 0 192 0 144 0C96 0 48 0 24 0H0V36.6Z" fill="#1768AC"/>
</svg>
